<?xml version="1.0" standalone="no"?>
<!DOCTYPE svg PUBLIC "-//W3C//DTD SVG 20010904//EN"
 "http://www.w3.org/TR/2001/REC-SVG-20010904/DTD/svg10.dtd">
<svg version="1.0" xmlns="http://www.w3.org/2000/svg"
 width="700.000000pt" height="700.000000pt" viewBox="0 0 700.000000 700.000000"
 preserveAspectRatio="xMidYMid meet">
<metadata>
Created by potrace 1.14, written by Peter Selinger 2001-2017
</metadata>
<g transform="translate(0.000000,700.000000) scale(0.100000,-0.100000)"
fill="#000000" stroke="none">
<path d="M872 5255 c480 -960 875 -1745 878 -1745 3 0 397 783 875 1740 478
957 872 1740 875 1740 3 0 397 -783 875 -1740 478 -957 872 -1740 875 -1740 3
0 398 785 878 1745 l872 1745 -3500 0 -3500 0 872 -1745z"/>
<path d="M872 1745 l-872 -1745 3500 0 3500 0 -872 1745 c-480 960 -875 1745
-878 1745 -3 0 -397 -783 -875 -1740 -478 -957 -872 -1740 -875 -1740 -3 0
-397 783 -875 1740 -478 957 -872 1740 -875 1740 -3 0 -398 -785 -878 -1745z"/>
</g>
</svg>
