<?xml version="1.0" standalone="no"?>
<!DOCTYPE svg PUBLIC "-//W3C//DTD SVG 20010904//EN"
 "http://www.w3.org/TR/2001/REC-SVG-20010904/DTD/svg10.dtd">
<svg version="1.0" xmlns="http://www.w3.org/2000/svg"
 width="192.000000pt" height="192.000000pt" viewBox="0 0 192.000000 192.000000"
 preserveAspectRatio="xMidYMid meet">
<metadata>
Created by potrace 1.14, written by Peter Selinger 2001-2017
</metadata>
<g transform="translate(0.000000,192.000000) scale(0.100000,-0.100000)"
fill="#000000" stroke="none">
<path d="M1088 1551 c-36 -21 -87 -55 -113 -75 -27 -20 -56 -36 -66 -36 -10 0
-20 -8 -24 -19 -6 -19 -93 -92 -155 -130 -51 -31 -74 -27 -117 21 -127 142
-154 156 -174 90 -10 -34 -7 -47 24 -132 19 -52 37 -105 40 -117 6 -27 -35
-69 -188 -191 -149 -118 -159 -135 -146 -249 0 -7 12 -20 25 -28 32 -21 60
-10 201 87 61 42 140 94 176 116 60 36 68 39 82 25 14 -14 13 -19 -13 -52 -33
-42 -42 -87 -29 -137 17 -60 69 -61 149 -4 l28 20 144 -143 c138 -137 249
-226 289 -228 11 -1 25 -2 32 -3 27 -4 60 11 68 31 6 18 -7 34 -89 110 -129
117 -201 195 -276 294 l-27 37 77 46 76 47 20 -23 c11 -13 57 -68 101 -123
107 -133 285 -309 373 -369 60 -40 79 -48 119 -48 56 0 82 19 67 49 -6 10 -43
47 -84 83 -145 126 -246 243 -372 428 -88 131 -85 138 114 293 299 231 328
269 258 338 -38 37 -65 39 -121 7 -86 -48 -89 -50 -350 -251 -38 -29 -69 -45
-87 -45 -42 0 -48 19 -14 48 163 138 177 157 154 213 -13 31 -55 59 -87 59
-10 0 -48 -17 -85 -39z m-155 -431 c-9 -14 -38 -44 -67 -68 -51 -43 -51 -43
-54 -18 -5 36 12 61 70 107 47 36 53 39 59 22 4 -10 0 -29 -8 -43z"/>
</g>
</svg>
